<?xml version="1.0" encoding="UTF-8"?>
<svg width="30px" height="30px" viewBox="0 0 30 30" version="1.1" xmlns="http://www.w3.org/2000/svg" xmlns:xlink="http://www.w3.org/1999/xlink">
    <!-- Generator: Sketch 57.1 (83088) - https://sketch.com -->
    <title>contact_chat</title>
    <desc>Created with Sketch.</desc>
    <g id="Symbols" stroke="none" stroke-width="1" fill="none" fill-rule="evenodd">
        <g id="contact_chat" fill="#000000" fill-rule="nonzero">
            <g id="help" transform="translate(1.000000, 1.000000)">
                <path d="M28,18.9492188 C28,15.4746399 26.0066833,12.3736878 23.0213013,10.8652954 C22.9285889,17.5273438 17.5273438,22.9285889 10.8652954,23.0213013 C12.3736878,26.0066833 15.4746399,28 18.9492188,28 C20.5783081,28 22.1625366,27.5661316 23.5545044,26.7417603 L27.9604797,27.9604797 L26.7417603,23.5545044 C27.5661316,22.1625366 28,20.5783081 28,18.9492188 L28,18.9492188 Z" id="Path"></path>
                <path d="M21.3828125,10.6914062 C21.3828125,4.79605104 16.5867615,0 10.6914062,0 C4.79605104,0 0,4.79605104 0,10.6914062 C0,12.6127319 0.511413547,14.483429 1.48254395,16.125763 L0.0393066406,21.3432922 L5.25704955,19.9002686 C6.89938353,20.871399 8.77008059,21.3828125 10.6914062,21.3828125 C16.5867615,21.3828125 21.3828125,16.5867615 21.3828125,10.6914062 Z" id="Shape"></path>
            </g>
        </g>
    </g>
</svg>