<svg width="115" height="16" viewBox="0 0 115 16" fill="none" xmlns="http://www.w3.org/2000/svg">
<path d="M0.598011 15V0.454545H9.6179V2.34375H2.79261V6.77557H8.97159V8.65767H2.79261V15H0.598011ZM24.9517 7.72727C24.9517 9.2803 24.6676 10.6155 24.0994 11.733C23.5313 12.8456 22.7524 13.7027 21.7628 14.304C20.7779 14.9006 19.6581 15.1989 18.4034 15.1989C17.1439 15.1989 16.0194 14.9006 15.0298 14.304C14.045 13.7027 13.2685 12.8433 12.7003 11.7259C12.1321 10.6084 11.848 9.27557 11.848 7.72727C11.848 6.17424 12.1321 4.84138 12.7003 3.72869C13.2685 2.61127 14.045 1.75426 15.0298 1.15767C16.0194 0.556344 17.1439 0.255681 18.4034 0.255681C19.6581 0.255681 20.7779 0.556344 21.7628 1.15767C22.7524 1.75426 23.5313 2.61127 24.0994 3.72869C24.6676 4.84138 24.9517 6.17424 24.9517 7.72727ZM22.7784 7.72727C22.7784 6.54356 22.5866 5.54687 22.2031 4.73722C21.8243 3.92282 21.3035 3.30729 20.6406 2.89062C19.9825 2.46922 19.2367 2.25852 18.4034 2.25852C17.5653 2.25852 16.8172 2.46922 16.1591 2.89062C15.5009 3.30729 14.9801 3.92282 14.5966 4.73722C14.2178 5.54687 14.0284 6.54356 14.0284 7.72727C14.0284 8.91098 14.2178 9.91004 14.5966 10.7244C14.9801 11.5341 15.5009 12.1496 16.1591 12.571C16.8172 12.9877 17.5653 13.196 18.4034 13.196C19.2367 13.196 19.9825 12.9877 20.6406 12.571C21.3035 12.1496 21.8243 11.5341 22.2031 10.7244C22.5866 9.91004 22.7784 8.91098 22.7784 7.72727ZM27.6879 15V0.454545H32.8725C33.9994 0.454545 34.9345 0.648674 35.6779 1.03693C36.426 1.42519 36.9847 1.96259 37.354 2.64915C37.7234 3.33097 37.908 4.11932 37.908 5.0142C37.908 5.90436 37.721 6.68797 37.3469 7.36506C36.9776 8.03741 36.4189 8.56061 35.6708 8.93466C34.9274 9.30871 33.9923 9.49574 32.8654 9.49574H28.9379V7.60653H32.6665C33.3768 7.60653 33.9544 7.50473 34.3995 7.30114C34.8493 7.09754 35.1784 6.80161 35.3867 6.41335C35.5951 6.02509 35.6992 5.55871 35.6992 5.0142C35.6992 4.46496 35.5927 3.98911 35.3796 3.58665C35.1713 3.18419 34.8422 2.87642 34.3924 2.66335C33.9473 2.44555 33.3626 2.33665 32.6381 2.33665H29.8825V15H27.6879ZM34.8683 8.4375L38.462 15H35.962L32.4393 8.4375H34.8683ZM40.5785 15V0.454545H49.6978V2.34375H42.7731V6.77557H49.2219V8.65767H42.7731V13.1108H49.783V15H40.5785ZM53.9006 0.454545L57.9489 12.3011H58.1122L62.1605 0.454545H64.5327L59.2983 15H56.7628L51.5284 0.454545H53.9006ZM66.6332 15V0.454545H75.7525V2.34375H68.8278V6.77557H75.2766V8.65767H68.8278V13.1108H75.8377V15H66.6332ZM78.6839 15V0.454545H83.8686C84.9955 0.454545 85.9306 0.648674 86.674 1.03693C87.4221 1.42519 87.9808 1.96259 88.3501 2.64915C88.7195 3.33097 88.9041 4.11932 88.9041 5.0142C88.9041 5.90436 88.7171 6.68797 88.343 7.36506C87.9737 8.03741 87.415 8.56061 86.6669 8.93466C85.9235 9.30871 84.9884 9.49574 83.8615 9.49574H79.9339V7.60653H83.6626C84.3729 7.60653 84.9505 7.50473 85.3956 7.30114C85.8454 7.09754 86.1745 6.80161 86.3828 6.41335C86.5911 6.02509 86.6953 5.55871 86.6953 5.0142C86.6953 4.46496 86.5888 3.98911 86.3757 3.58665C86.1674 3.18419 85.8383 2.87642 85.3885 2.66335C84.9434 2.44555 84.3587 2.33665 83.6342 2.33665H80.8786V15H78.6839ZM85.8643 8.4375L89.4581 15H86.9581L83.4354 8.4375H85.8643ZM96.6687 15V13.4091L101.591 8.30966C102.116 7.75568 102.549 7.27036 102.89 6.85369C103.236 6.43229 103.494 6.0322 103.664 5.65341C103.835 5.27462 103.92 4.87216 103.92 4.44602C103.92 3.96307 103.806 3.5464 103.579 3.19602C103.352 2.84091 103.042 2.56866 102.649 2.37926C102.256 2.18513 101.813 2.08807 101.321 2.08807C100.8 2.08807 100.345 2.1946 99.957 2.40767C99.5688 2.62074 99.2705 2.9214 99.0621 3.30966C98.8538 3.69792 98.7496 4.15246 98.7496 4.6733H96.6545C96.6545 3.78788 96.8581 3.01373 97.2653 2.35085C97.6725 1.68797 98.2312 1.17424 98.9414 0.809659C99.6516 0.44034 100.459 0.255681 101.363 0.255681C102.277 0.255681 103.082 0.437973 103.778 0.802556C104.479 1.1624 105.026 1.65483 105.419 2.27983C105.812 2.90009 106.008 3.60085 106.008 4.3821C106.008 4.92188 105.906 5.44981 105.703 5.96591C105.504 6.48201 105.156 7.05729 104.659 7.69176C104.162 8.3215 103.47 9.08617 102.585 9.9858L99.6942 13.0114V13.1179H106.243V15H96.6687ZM114.453 0.454545V15H112.251V2.65625H112.166L108.686 4.92898V2.8267L112.315 0.454545H114.453Z" fill="#343A40"/>
</svg>
