<svg width="125" height="17" viewBox="0 0 125 17" fill="none" xmlns="http://www.w3.org/2000/svg">
<path d="M70.625 6.24375H64.1844L62.1875 0L60.1906 6.24375H53.75L58.9531 10.0969L56.9844 16.3125L62.1875 12.4594L67.3906 16.3125L65.3938 10.0687L70.625 6.24375Z" fill="#FFCE31"/>
<path d="M97.5 6.24375H91.0594L89.0625 0L87.0656 6.24375H80.625L85.8281 10.0969L83.8594 16.3125L89.0625 12.4594L94.2656 16.3125L92.2688 10.0687L97.5 6.24375Z" fill="#FFCE31"/>
<path d="M43.75 6.24375H37.3094L35.3125 0L33.3156 6.24375H26.875L32.0781 10.0969L30.1094 16.3125L35.3125 12.4594L40.5156 16.3125L38.5188 10.0687L43.75 6.24375Z" fill="#FFCE31"/>
<path d="M16.875 6.24375H10.4344L8.4375 0L6.44062 6.24375H0L5.20312 10.0969L3.23438 16.3125L8.4375 12.4594L13.6406 16.3125L11.6438 10.0687L16.875 6.24375Z" fill="#FFCE31"/>
<path d="M124.375 6.24375H117.934L115.938 0L113.941 6.24375H107.5L112.703 10.0969L110.734 16.3125L115.938 12.4594L121.141 16.3125L119.144 10.0687L124.375 6.24375Z" fill="#FFCE31"/>
</svg>
