<svg width="19" height="15" viewBox="0 0 19 15" fill="none" xmlns="http://www.w3.org/2000/svg">
<rect y="2" width="19" height="13" fill="#C4C4C4"/>
<path d="M4.69957 10V9.20455L7.16051 6.65483C7.4233 6.37784 7.63991 6.13518 7.81037 5.92685C7.98319 5.71615 8.11222 5.5161 8.19744 5.3267C8.28267 5.13731 8.32528 4.93608 8.32528 4.72301C8.32528 4.48153 8.26847 4.2732 8.15483 4.09801C8.04119 3.92045 7.88613 3.78433 7.68963 3.68963C7.49313 3.59257 7.27178 3.54403 7.02557 3.54403C6.76515 3.54403 6.53788 3.5973 6.34375 3.70384C6.14962 3.81037 6.00047 3.9607 5.89631 4.15483C5.79214 4.34896 5.74006 4.57623 5.74006 4.83665H4.69247C4.69247 4.39394 4.79427 4.00687 4.99787 3.67543C5.20147 3.34399 5.48082 3.08712 5.83594 2.90483C6.19105 2.72017 6.5947 2.62784 7.04688 2.62784C7.50379 2.62784 7.90625 2.71899 8.25426 2.90128C8.60464 3.0812 8.87808 3.32741 9.07457 3.63991C9.27107 3.95005 9.36932 4.30043 9.36932 4.69105C9.36932 4.96094 9.31842 5.22491 9.21662 5.48295C9.11719 5.741 8.94318 6.02865 8.6946 6.34588C8.44602 6.66075 8.10038 7.04309 7.65767 7.4929L6.21236 9.00568V9.05895H9.48651V10H4.69957ZM13.5916 2.72727V10H12.4908V3.82812H12.4482L10.7081 4.96449V3.91335L12.5227 2.72727H13.5916Z" fill="black"/>
<line x1="1" y1="12.5" x2="4" y2="12.5" stroke="black"/>
<line x1="6" y1="12.5" x2="15" y2="12.5" stroke="black"/>
</svg>
